<svg width="1080" height="1080" viewBox="0 0 1080 1080" fill="none" xmlns="http://www.w3.org/2000/svg">
<path d="M499.819 130.01C525.199 117.291 555.093 117.292 580.472 130.013L809.563 244.843C840.01 260.104 859.234 291.245 859.234 325.302V505.722C859.234 663.71 771.113 879.981 565.419 955.167C549.124 961.124 531.169 961.125 514.873 955.172C309.176 880.034 221 663.712 221 505.782V325.306C221 291.247 240.227 260.105 270.677 244.845L499.819 130.01ZM557.485 398.692C546.26 393.105 533.065 393.105 521.84 398.692L315.681 501.296C286.111 516.013 286.111 558.2 315.681 572.917L521.84 675.521C533.065 681.108 546.26 681.108 557.485 675.521L763.645 572.917C793.214 558.199 793.214 516.013 763.645 501.296L557.485 398.692ZM539.208 454.374C584.901 454.374 621.941 491.414 621.941 537.107C621.941 582.8 584.901 619.841 539.208 619.841C493.515 619.841 456.474 582.8 456.474 537.107C456.474 491.414 493.515 454.374 539.208 454.374Z" fill="#B3973C"/>
</svg>
