<svg width="1080" height="1080" viewBox="0 0 1080 1080" fill="none" xmlns="http://www.w3.org/2000/svg">
<path d="M539.5 120C771.183 120 959 170.144 959 232C959 278.214 854.16 317.889 704.516 335C854.16 352.111 959 391.786 959 438C959 484.214 854.16 523.889 704.516 541C854.16 558.111 959 597.786 959 644C959 690.178 854.323 729.827 704.864 746.96C854.873 764.049 960 803.75 960 850C960 911.856 771.96 962 540 962C308.04 962 120 911.856 120 850C120 803.801 224.893 764.137 374.635 747.017C224.91 729.915 120 690.23 120 644C120 597.786 224.839 558.111 374.483 541C224.839 523.889 120 484.214 120 438C120 391.786 224.839 352.111 374.483 335C224.839 317.889 120 278.214 120 232C120 170.144 307.817 120 539.5 120Z" fill="#6F7734"/>
</svg>
