<svg width="1080" height="1080" viewBox="0 0 1080 1080" fill="none" xmlns="http://www.w3.org/2000/svg">
<path d="M600 322.868C600 349.595 632.314 362.98 651.213 344.081L771.934 223.361C783.65 211.645 802.645 211.645 814.361 223.361L856.787 265.787C868.503 277.503 868.503 296.497 856.787 308.213L736.213 428.787C717.314 447.686 730.699 480 757.426 480H928C944.569 480 958 493.431 958 510V570C958 586.569 944.569 600 928 600H757.132C730.405 600 717.02 632.314 735.919 651.213L856.781 772.075C868.497 783.791 868.497 802.786 856.781 814.501L814.355 856.928C802.639 868.644 783.644 868.644 771.928 856.928L651.213 736.213C632.314 717.314 600 730.699 600 757.426V930C600 946.569 586.569 960 570 960H510C493.431 960 480 946.569 480 930V757.426C480 730.699 447.686 717.314 428.787 736.213L308.072 856.928C296.356 868.644 277.361 868.644 265.645 856.928L223.219 814.501C211.503 802.786 211.503 783.791 223.219 772.075L344.081 651.213C362.98 632.314 349.595 600 322.868 600H152C135.431 600 122 586.569 122 570V510C122 493.431 135.431 480 152 480H322.574C349.301 480 362.686 447.686 343.787 428.787L223.213 308.213C211.497 296.497 211.497 277.503 223.213 265.787L265.639 223.361C277.355 211.645 296.35 211.645 308.066 223.361L428.787 344.081C447.686 362.98 480 349.595 480 322.868V154C480 137.431 493.431 124 510 124H570C586.569 124 600 137.431 600 154V322.868Z" fill="#942E1E"/>
</svg>
